<svg xmlns="http://www.w3.org/2000/svg" xmlns:xlink="http://www.w3.org/1999/xlink" class="railroad" viewBox="0 0 166 86" height="86" width="166">
<style type="text/css">
svg.railroad rect.railroad_canvas {
fill: hsl(30, 20%, 95%);
stroke-width: 0px;
}

svg.railroad path {
stroke-width: 3px;
stroke: black;
fill: none;
}

svg.railroad .continuation circle,
svg.railroad .continuation-start circle,
svg.railroad .continuation-end circle {
fill: black;
stroke: none;
}

svg.railroad .debug {
stroke-width: 1px;
stroke: red;
}

svg.railroad text {
font: 14px monospace;
text-anchor: middle;
}

svg.railroad .nonterminal text {
font-weight: bold;
}

svg.railroad text.comment {
font: italic 12px monospace;
}

svg.railroad rect,
svg.railroad .annotation > path.annotation-marker {
stroke-width: 3px;
stroke: black;
fill:hsl(-290, 70%, 90%);
}

svg.railroad g.labeledbox > rect,
svg.railroad .annotation > path.annotation-connector {
stroke-width: 1px;
stroke: grey;
stroke-dasharray: 5px;
fill: rgb(90, 90, 150);
fill-opacity: .1;
}

svg.railroad .annotation > path.annotation-connector {
fill: none;
}

/* Annotation markers use wavy arrows distinct from rail traversal arrows. */

svg.railroad .annotation > path.annotation-direction {
stroke-width: 2px;
stroke: black;
}
</style>
<title>
Explain a group with a labeled box around its node.</title>
<rect width="100%" height="100%" class="railroad_canvas"/>
<g class="sequence">
<path d=" M 10 57 a 5 5 0 0 1 5 -5 a 5 5 0 0 1 5 5 a 5 5 0 0 1 -5 5 a 5 5 0 0 1 -5 -5 m 10 0 h 5"/>
<g class="labeledbox">
<rect x="35" y="10" height="66" width="96"/>
<path d=" M 35 57 h 8 m 52 0 h 36"/>
<text class="comment" x="83" y="33">
expression</text>
<g class="nonterminal">
<rect x="43" y="46" height="22" width="52"/>
<text x="69" y="62">
expr</text>
</g>
</g>
<path d=" M 141 57 h 5 a 5 5 0 0 1 5 -5 a 5 5 0 0 1 5 5 a 5 5 0 0 1 -5 5 a 5 5 0 0 1 -5 -5"/>
<path d=" M 25 57 h 10"/>
<path d=" M 131 57 h 10"/>
</g>
</svg>

