<svg height="60" width="170" xmlns="http://www.w3.org/2000/svg" xmlns:xlink="http://www.w3.org/1999/xlink" class="railroad" viewBox="0 0 170 60">
<style type="text/css">
svg.railroad {
background-color: hsl(30, 20%, 95%);
background-size: 15px 15px;
background-image: linear-gradient(to right, rgba(30, 30, 30, .05) 1px, transparent 1px),
		  linear-gradient(to bottom, rgba(30, 30, 30, .05) 1px, transparent 1px);
}

svg.railroad rect.railroad_canvas {
stroke-width: 0px;
fill: none;
}

svg.railroad path {
stroke-width: 3px;
stroke: black;
fill: none;
}

svg.railroad .continuation circle,
svg.railroad .continuation-start circle,
svg.railroad .continuation-end circle {
fill: black;
stroke: none;
}

svg.railroad .debug {
stroke-width: 1px;
stroke: red;
}

svg.railroad text {
font: 14px monospace;
text-anchor: middle;
}

svg.railroad .nonterminal text {
font-weight: bold;
}

svg.railroad text.comment {
font: italic 12px monospace;
}

svg.railroad rect,
svg.railroad .annotation > path.annotation-marker {
stroke-width: 3px;
stroke: black;
fill:hsl(-290, 70%, 90%);
}

svg.railroad g.labeledbox > rect,
svg.railroad .annotation > path.annotation-connector {
stroke-width: 1px;
stroke: grey;
stroke-dasharray: 5px;
fill: rgb(90, 90, 150);
fill-opacity: .1;
}

svg.railroad .annotation > path.annotation-connector {
fill: none;
}

/* Annotation markers use wavy arrows distinct from rail traversal arrows. */

svg.railroad .annotation > path.annotation-direction {
stroke-width: 2px;
stroke: black;
}
</style>
<title>
Consume `else`, or take the upper bypass and consume nothing.</title>
<rect width="100%" height="100%" class="railroad_canvas"/>
<g class="sequence">
<path d=" M 10 39 a 5 5 0 0 1 5 -5 a 5 5 0 0 1 5 5 a 5 5 0 0 1 -5 5 a 5 5 0 0 1 -5 -5 m 10 0 h 5"/>
<g class="optional">
<path d=" M 35 39 h 24 m -24 0 a 12 12 0 0 0 12 -12 v 0 a 12 12 0 0 1 12 -12 h 52 m -23 0 l -5 -5 m 0 10 l 5 -5 m 23 0 a 12 12 0 0 1 12 12 v 0 a 12 12 0 0 0 12 12 h -24"/>
<g class="terminal">
<rect x="59" y="28" height="22" width="52" rx="10" ry="10"/>
<text x="85" y="44">
else</text>
</g>
</g>
<path d=" M 145 39 h 5 a 5 5 0 0 1 5 -5 a 5 5 0 0 1 5 5 a 5 5 0 0 1 -5 5 a 5 5 0 0 1 -5 -5"/>
<path d=" M 25 39 h 10"/>
<path d=" M 135 39 h 10"/>
</g>
</svg>

