<svg xmlns="http://www.w3.org/2000/svg" xmlns:xlink="http://www.w3.org/1999/xlink" class="railroad" viewBox="0 0 182 138" height="138" width="182">
<style type="text/css">
svg.railroad rect.railroad_canvas {
fill: hsl(30, 20%, 95%);
stroke-width: 0px;
}

svg.railroad path {
stroke-width: 3px;
stroke: black;
fill: none;
}

svg.railroad .debug {
stroke-width: 1px;
stroke: red;
}

svg.railroad text {
font: 14px monospace;
text-anchor: middle;
}

svg.railroad .nonterminal text {
font-weight: bold;
}

svg.railroad text.comment {
font: italic 12px monospace;
}

svg.railroad rect {
stroke-width: 3px;
stroke: black;
fill:hsl(-290, 70%, 90%);
}

svg.railroad g.labeledbox > rect {
stroke-width: 1px;
stroke: grey;
stroke-dasharray: 5px;
fill: rgb(90, 90, 150);
fill-opacity: .1;
}
</style>
<title>
Read the same `(`, expression, `)` sequence across connected rows.</title>
<rect width="100%" height="100%" class="railroad_canvas"/>
<g class="sequence">
<path d=" M 10 21 a 5 5 0 0 1 5 -5 a 5 5 0 0 1 5 5 a 5 5 0 0 1 -5 5 a 5 5 0 0 1 -5 -5 m 10 0 h 5"/>
<g class="stack">
<path d=" M 35 21 h 24"/>
<path d=" M 87 21 a 12 12 0 0 1 12 12 v 0 a 12 12 0 0 1 -12 12 h -28 a 12 12 0 0 0 -12 12 v 0 v 0 a 12 12 0 0 0 12 12"/>
<g class="terminal">
<rect x="59" y="10" height="22" width="28" rx="10" ry="10"/>
<text x="73" y="26">
(</text>
</g>
<path d=" M 111 69 a 12 12 0 0 1 12 12 v 0 a 12 12 0 0 1 -12 12 h -52 m 29 0 l 5 -5 m 0 10 l -5 -5 m -29 0 a 12 12 0 0 0 -12 12 v 0 v 0 a 12 12 0 0 0 12 12"/>
<g class="nonterminal">
<rect x="59" y="58" height="22" width="52"/>
<text x="85" y="74">
expr</text>
</g>
<path d=" M 87 117 h 36 a 12 12 0 0 0 12 -12 v -72 m 0 39 l -5 5 m 10 0 l -5 -5 m 0 -39 a 12 12 0 0 1 12 -12"/>
<g class="terminal">
<rect x="59" y="106" height="22" width="28" rx="10" ry="10"/>
<text x="73" y="122">
)</text>
</g>
</g>
<path d=" M 157 21 h 5 a 5 5 0 0 1 5 -5 a 5 5 0 0 1 5 5 a 5 5 0 0 1 -5 5 a 5 5 0 0 1 -5 -5"/>
<path d=" M 25 21 h 10"/>
<path d=" M 147 21 h 10"/>
</g>
</svg>

